<?xml version="1.0" encoding="UTF-8"?>
<svg width="196px" height="207px" viewBox="0 0 196 207" version="1.1" xmlns="http://www.w3.org/2000/svg" xmlns:xlink="http://www.w3.org/1999/xlink">
    <!-- Generator: Sketch 47.1 (45422) - http://www.bohemiancoding.com/sketch -->
    <title>Deck</title>
    <desc>Created with Sketch.</desc>
    <defs></defs>
    <g id="Page-1" stroke="none" stroke-width="1" fill="none" fill-rule="evenodd">
        <g id="Deck" fill="#D8D8D8">
            <path d="M97.9,0.799 C98.9,0.799 99.83,1.066 100.7,1.6 L192.4,54.7 C193.6,55.367 194.43,56.367 194.9,57.7 C195.3,58.9 195.3,60.167 194.9,61.5 C194.43,62.766 193.6,63.766 192.4,64.5 L100.7,117.6 C100.3,117.799 99.87,118 99.4,118.2 L97.9,119 L96.3,118.2 C95.83,118 95.4,117.799 95,117.6 L3.3,64.5 C2.1,63.766 1.3,62.766 0.9,61.5 C0.3,60.167 0.3,58.9 0.9,57.7 C1.3,56.367 2.1,55.367 3.3,54.7 L95,1.6 C95.87,1.066 96.83,0.799 97.9,0.799 Z" id="Path"></path>
            <path d="M194.9,105.6 C194.43,106.799 193.6,107.799 192.4,108.6 L100.7,161.6 C99.83,162.067 98.9,162.299 97.9,162.299 C96.83,162.299 95.87,162.067 95,161.6 L3.3,108.6 C2.1,107.799 1.3,106.799 0.9,105.6 C0.3,104.266 0.3,102.966 0.9,101.7 C1.3,100.367 2.1,99.367 3.3,98.7 L21.8,88.1 L92.1,128.9 L92.3,128.9 C93.9,129.834 95.77,130.299 97.9,130.299 C99.97,130.299 101.87,129.834 103.6,128.9 L174.1,88.1 L192.4,98.7 C193.6,99.367 194.43,100.367 194.9,101.7 C195.3,102.966 195.3,104.266 194.9,105.6 Z" id="Path"></path>
            <path d="M92.1,173.5 L92.3,173.5 C93.9,174.433 95.77,174.9 97.9,174.9 C99.97,174.9 101.87,174.433 103.6,173.5 L174.1,132.7 L192.4,143.299 C193.6,143.966 194.43,144.966 194.9,146.299 C195.3,147.566 195.3,148.867 194.9,150.2 C194.43,151.4 193.6,152.4 192.4,153.2 L100.7,206.2 C99.83,206.733 98.9,207 97.9,207 C96.83,207 95.87,206.733 95,206.2 L3.3,153.2 C2.1,152.4 1.3,151.4 0.9,150.2 C0.3,148.867 0.3,147.566 0.9,146.299 C1.3,144.966 2.1,143.966 3.3,143.299 L21.8,132.7 L92.1,173.5 Z" id="Path"></path>
        </g>
    </g>
</svg>